<svg xmlns="http://www.w3.org/2000/svg" viewBox="0 0 640 400" role="img" aria-labelledby="title desc">
  <title id="title">Brand analytics workspace preview</title>
  <desc id="desc">A stylized analytics dashboard summarizing paid campaign performance, creator pipeline, and ROI for marketing teams.</desc>
  <defs>
    <linearGradient id="businessBg" x1="0" x2="1" y1="0" y2="1">
      <stop offset="0%" stop-color="#f5f3ff" />
      <stop offset="100%" stop-color="#eef2ff" />
    </linearGradient>
  </defs>
  <rect width="640" height="400" rx="24" fill="url(#businessBg)" />
  <rect x="32" y="40" width="576" height="64" rx="16" fill="#111827" opacity="0.92" />
  <rect x="56" y="60" width="140" height="24" rx="12" fill="#1d4ed8" />
  <rect x="212" y="60" width="92" height="24" rx="12" fill="#1e40af" opacity="0.5" />
  <rect x="316" y="60" width="92" height="24" rx="12" fill="#1e40af" opacity="0.5" />
  <rect x="420" y="60" width="92" height="24" rx="12" fill="#1e40af" opacity="0.5" />
  <circle cx="552" cy="72" r="12" fill="#f59e0b" />
  <rect x="32" y="128" width="272" height="232" rx="20" fill="#ffffff" stroke="#e5e7eb" />
  <rect x="328" y="128" width="280" height="144" rx="20" fill="#ffffff" stroke="#e5e7eb" />
  <rect x="328" y="296" width="280" height="96" rx="20" fill="#ffffff" stroke="#e5e7eb" />
  <g transform="translate(56 156)">
    <rect width="96" height="96" rx="20" fill="#eff6ff" />
    <path d="M48 24v48" stroke="#2563eb" stroke-width="6" stroke-linecap="round" />
    <path d="M24 72h48" stroke="#2563eb" stroke-width="6" stroke-linecap="round" />
    <text x="120" y="40" fill="#111827" font-family="'Poppins', 'Noto Sans KR', sans-serif" font-size="22" font-weight="600">$184K</text>
    <text x="120" y="68" fill="#6b7280" font-family="'Poppins', 'Noto Sans KR', sans-serif" font-size="16">Campaign revenue</text>
  </g>
  <g transform="translate(56 256)">
    <rect width="96" height="96" rx="20" fill="#dcfce7" />
    <path d="M32 72l20-28 14 16 18-28" fill="none" stroke="#16a34a" stroke-width="6" stroke-linecap="round" stroke-linejoin="round" />
    <text x="120" y="40" fill="#111827" font-family="'Poppins', 'Noto Sans KR', sans-serif" font-size="22" font-weight="600">132%</text>
    <text x="120" y="68" fill="#6b7280" font-family="'Poppins', 'Noto Sans KR', sans-serif" font-size="16">Return on ad spend</text>
  </g>
  <g transform="translate(352 152)">
    <rect width="80" height="112" rx="16" fill="#f1f5f9" />
    <rect x="20" y="48" width="40" height="56" rx="12" fill="#60a5fa" />
    <rect x="88" width="80" height="112" rx="16" fill="#f1f5f9" />
    <rect x="108" y="28" width="40" height="84" rx="12" fill="#38bdf8" />
    <rect x="176" y="20" width="80" height="112" rx="16" fill="#f1f5f9" />
    <rect x="196" y="52" width="40" height="80" rx="12" fill="#0ea5e9" />
    <text x="0" y="-12" fill="#111827" font-family="'Poppins', 'Noto Sans KR', sans-serif" font-size="18" font-weight="600">Creator pipeline</text>
  </g>
  <g transform="translate(352 312)">
    <rect width="56" height="24" rx="12" fill="#fee2e2" />
    <rect x="72" width="56" height="24" rx="12" fill="#fef3c7" />
    <rect x="144" width="56" height="24" rx="12" fill="#fef9c3" />
    <rect x="216" width="56" height="24" rx="12" fill="#dcfce7" />
    <text x="0" y="56" fill="#6b7280" font-family="'Poppins', 'Noto Sans KR', sans-serif" font-size="16">Workflow stages for talent approvals</text>
  </g>
</svg>
