<svg xmlns="http://www.w3.org/2000/svg" viewBox="0 0 640 400" role="img" aria-labelledby="title desc">
  <title id="title">Personal analytics dashboard preview</title>
  <desc id="desc">A stylized dashboard showing follower growth, engagement, and content performance metrics for a solo creator.</desc>
  <defs>
    <linearGradient id="bg" x1="0" x2="1" y1="0" y2="1">
      <stop offset="0%" stop-color="#f9fbff" />
      <stop offset="100%" stop-color="#eef2ff" />
    </linearGradient>
    <linearGradient id="chart" x1="0" x2="0" y1="1" y2="0">
      <stop offset="0%" stop-color="#8ab4ff" />
      <stop offset="100%" stop-color="#5c6cff" />
    </linearGradient>
  </defs>
  <rect width="640" height="400" rx="24" fill="url(#bg)" />
  <rect x="32" y="40" width="576" height="72" rx="16" fill="#1f2937" opacity="0.9" />
  <circle cx="72" cy="76" r="12" fill="#4ade80" />
  <rect x="96" y="64" width="120" height="24" rx="12" fill="#374151" />
  <rect x="232" y="64" width="96" height="24" rx="12" fill="#374151" />
  <rect x="344" y="64" width="72" height="24" rx="12" fill="#374151" />
  <rect x="432" y="64" width="88" height="24" rx="12" fill="#374151" />
  <rect x="528" y="64" width="56" height="24" rx="12" fill="#2563eb" />
  <rect x="32" y="136" width="280" height="232" rx="20" fill="#ffffff" stroke="#e5e7eb" />
  <rect x="336" y="136" width="272" height="136" rx="20" fill="#ffffff" stroke="#e5e7eb" />
  <rect x="336" y="288" width="272" height="80" rx="20" fill="#ffffff" stroke="#e5e7eb" />
  <g transform="translate(52 164)">
    <rect width="72" height="72" rx="16" fill="#eff6ff" />
    <circle cx="36" cy="36" r="22" fill="#2563eb" opacity="0.12" />
    <path d="M20 44l10-12 8 8 12-16" fill="none" stroke="#2563eb" stroke-width="4" stroke-linecap="round" stroke-linejoin="round" />
    <text x="96" y="32" fill="#111827" font-family="'Poppins', 'Noto Sans KR', sans-serif" font-size="20" font-weight="600">+1,240</text>
    <text x="96" y="56" fill="#6b7280" font-family="'Poppins', 'Noto Sans KR', sans-serif" font-size="16">Net followers this week</text>
  </g>
  <g transform="translate(52 252)">
    <rect width="72" height="72" rx="16" fill="#fef3c7" />
    <path d="M28 54l16-16 12 12" fill="none" stroke="#d97706" stroke-width="4" stroke-linecap="round" stroke-linejoin="round" />
    <text x="96" y="32" fill="#111827" font-family="'Poppins', 'Noto Sans KR', sans-serif" font-size="20" font-weight="600">8.4%</text>
    <text x="96" y="56" fill="#6b7280" font-family="'Poppins', 'Noto Sans KR', sans-serif" font-size="16">Engagement rate</text>
  </g>
  <g transform="translate(360 168)">
    <polyline points="8,96 56,44 104,72 152,28 200,60 240,20" fill="none" stroke="#2563eb" stroke-width="6" stroke-linecap="round" stroke-linejoin="round" />
    <polyline points="8,112 56,68 104,92 152,44 200,84 240,40" fill="none" stroke="#a855f7" stroke-width="6" stroke-dasharray="12 12" stroke-linecap="round" />
    <circle cx="240" cy="20" r="10" fill="#2563eb" />
    <circle cx="200" cy="84" r="8" fill="#a855f7" />
    <text x="0" y="-16" fill="#111827" font-family="'Poppins', 'Noto Sans KR', sans-serif" font-size="18" font-weight="600">Content performance</text>
  </g>
  <g transform="translate(360 312)">
    <rect width="56" height="24" rx="12" fill="#dbeafe" />
    <rect x="72" width="56" height="24" rx="12" fill="#ede9fe" />
    <rect x="144" width="56" height="24" rx="12" fill="#fee2e2" />
    <rect x="216" width="56" height="24" rx="12" fill="#dcfce7" />
    <text x="0" y="56" fill="#6b7280" font-family="'Poppins', 'Noto Sans KR', sans-serif" font-size="16">Daily posting cadence recommendations</text>
  </g>
</svg>
